<svg width="106" height="28" viewBox="0 0 106 28" fill="none" xmlns="http://www.w3.org/2000/svg">
<g clip-path="url(#clip0_667_2162)">
<g clip-path="url(#clip1_667_2162)">
<path fill-rule="evenodd" clip-rule="evenodd" d="M27.3995 2.15785C26.3677 0.192253 22.9741 0.809653 20.0411 1.59505C7.29136 6.29345 2.78056 15.8415 1.19576 21.5297C1.11736 21.6725 1.06976 21.8363 1.06556 22.0113C0.438362 24.4249 0.352962 26.0335 0.351562 26.0867C0.327762 26.6649 0.777162 27.1535 1.35536 27.1773C1.37076 27.1787 1.38616 27.1787 1.40156 27.1787C1.96016 27.1787 2.42496 26.7377 2.45016 26.1735C2.45716 26.0027 2.52156 24.8281 2.91776 23.0725C6.42896 22.9241 9.96396 21.6165 13.4359 19.1749C13.7075 18.9845 13.8727 18.6765 13.8825 18.3461C13.8923 18.0143 13.7439 17.6979 13.4849 17.4935L11.8833 16.2251L17.1389 15.7099C17.3531 15.6889 17.5547 15.6035 17.7185 15.4635C17.8319 15.3683 20.5073 13.0779 23.0525 10.4081C26.9235 6.34805 28.2633 3.80425 27.3995 2.15785Z" fill="#335CFF"/>
<path fill-rule="evenodd" clip-rule="evenodd" d="M21.1785 25.0801H12.2045C11.6249 25.0801 11.1545 25.5505 11.1545 26.1301C11.1545 26.7097 11.6249 27.1801 12.2045 27.1801H21.1785C21.7581 27.1801 22.2285 26.7097 22.2285 26.1301C22.2285 25.5505 21.7581 25.0801 21.1785 25.0801Z" fill="#335CFF"/>
</g>
<path d="M49.362 4.134C49.7607 4.134 50.098 4.23367 50.374 4.433C50.65 4.617 50.788 4.847 50.788 5.123C50.788 5.61367 50.6347 6.01233 50.328 6.319C50.0213 6.61033 49.5843 6.756 49.017 6.756C48.1277 6.756 47.453 6.76367 46.993 6.779C46.9623 6.963 46.8243 7.791 46.579 9.263C46.303 10.9037 46.1343 11.908 46.073 12.276L45.59 15.289C45.2527 17.543 44.9843 19.429 44.785 20.947C45.107 20.9317 45.544 20.924 46.096 20.924C46.9087 20.924 47.4607 21.0313 47.752 21.246C48.0433 21.4607 48.189 21.7827 48.189 22.212C48.189 22.6107 48.028 22.948 47.706 23.224C47.3993 23.5 46.9623 23.638 46.395 23.638C46.0117 23.638 45.406 23.6227 44.578 23.592C43.8113 23.5613 43.3053 23.546 43.06 23.546C42.094 23.546 41.036 23.6303 39.886 23.799C39.38 23.8757 39.0197 23.914 38.805 23.914C38.4677 23.914 38.184 23.822 37.954 23.638C37.724 23.454 37.609 23.1857 37.609 22.833C37.609 22.281 37.8543 21.8517 38.345 21.545C38.8357 21.2383 39.5257 21.0773 40.415 21.062L41.496 21.039L41.565 20.533C41.933 18.0797 42.2013 16.347 42.37 15.335L42.876 12.322C43.1827 10.5433 43.4587 8.711 43.704 6.825L41.772 6.848C41.22 6.848 40.8367 6.76367 40.622 6.595C40.4227 6.411 40.323 6.158 40.323 5.836C40.323 4.79333 41.0743 4.23367 42.577 4.157C43.2823 4.12633 44.141 4.111 45.153 4.111L49.362 4.134ZM54.2637 23.615C53.6964 23.615 53.29 23.4923 53.0447 23.247C52.7994 22.9863 52.6767 22.5033 52.6767 21.798C52.6767 21.3227 52.7227 20.7477 52.8147 20.073C52.9067 19.3983 53.0677 18.3787 53.2977 17.014C53.3284 16.83 53.451 16.0863 53.6657 14.783C53.8804 13.4643 54.072 12.0843 54.2407 10.643C54.394 9.41633 54.4707 8.49633 54.4707 7.883C54.4707 7.193 54.2177 6.848 53.7117 6.848C53.3284 6.848 52.8454 7.055 52.2627 7.469C51.6954 7.86767 51.082 8.51167 50.4227 9.401C50.208 9.69233 49.9704 9.838 49.7097 9.838C49.495 9.838 49.3034 9.73833 49.1347 9.539C48.9814 9.32433 48.9047 9.08667 48.9047 8.826C48.9047 8.56533 48.9507 8.32 49.0427 8.09C49.1347 7.84467 49.3034 7.55333 49.5487 7.216C50.3 6.18867 51.1357 5.399 52.0557 4.847C52.9757 4.27967 53.9417 3.996 54.9537 3.996C55.797 3.996 56.4257 4.25667 56.8397 4.778C57.269 5.29933 57.4837 6.05833 57.4837 7.055C57.4837 7.94433 57.361 9.23233 57.1157 10.919C57.8824 8.64967 58.856 6.93233 60.0367 5.767C61.2174 4.58633 62.605 3.996 64.1997 3.996C65.457 3.996 66.4 4.35633 67.0287 5.077C67.6727 5.78233 67.9947 6.733 67.9947 7.929C67.9947 8.60367 67.895 9.424 67.6957 10.39L66.2927 16.968C66.1394 17.7347 66.0627 18.394 66.0627 18.946C66.0627 19.59 66.2084 20.073 66.4997 20.395C66.8064 20.717 67.228 20.878 67.7647 20.878C68.2707 20.878 68.7614 20.7093 69.2367 20.372C69.7274 20.0347 70.3024 19.475 70.9617 18.693C71.1457 18.4783 71.3527 18.371 71.5827 18.371C71.782 18.371 71.9354 18.463 72.0427 18.647C72.1654 18.831 72.2267 19.084 72.2267 19.406C72.2267 20.004 72.081 20.4793 71.7897 20.832C70.9924 21.798 70.2027 22.5033 69.4207 22.948C68.6387 23.3927 67.8184 23.615 66.9597 23.615C65.6564 23.615 64.6367 23.2317 63.9007 22.465C63.1647 21.683 62.7967 20.6403 62.7967 19.337C62.7967 18.831 62.835 18.279 62.9117 17.681C63.0037 17.083 63.1494 16.324 63.3487 15.404L64.2687 11.195C64.2994 11.057 64.353 10.8117 64.4297 10.459C64.5064 10.1063 64.5677 9.77667 64.6137 9.47C64.6597 9.148 64.6827 8.83367 64.6827 8.527C64.6827 8.03633 64.5447 7.64533 64.2687 7.354C63.9927 7.06267 63.6017 6.917 63.0957 6.917C62.1757 6.917 61.2557 7.40767 60.3357 8.389C59.4157 9.37033 58.5647 10.9573 57.7827 13.15C57.0007 15.3273 56.3874 18.118 55.9427 21.522C55.8354 22.304 55.6744 22.8483 55.4597 23.155C55.2604 23.4617 54.8617 23.615 54.2637 23.615ZM81.6288 16.439C81.8282 16.439 81.9815 16.5387 82.0888 16.738C82.1962 16.9373 82.2498 17.1903 82.2498 17.497C82.2498 18.233 82.0275 18.67 81.5828 18.808C80.6628 19.13 79.6508 19.314 78.5468 19.36C78.2555 20.648 77.6805 21.683 76.8218 22.465C75.9632 23.2317 74.9895 23.615 73.9008 23.615C72.9808 23.615 72.1912 23.3927 71.5318 22.948C70.8878 22.5033 70.3972 21.913 70.0598 21.177C69.7225 20.441 69.5538 19.6437 69.5538 18.785C69.5538 17.6197 69.7762 16.5847 70.2208 15.68C70.6655 14.76 71.2788 14.047 72.0608 13.541C72.8428 13.0197 73.7092 12.759 74.6598 12.759C75.8252 12.759 76.7605 13.1653 77.4658 13.978C78.1865 14.7753 78.6082 15.7643 78.7308 16.945C79.4515 16.899 80.3102 16.7457 81.3068 16.485C81.4295 16.4543 81.5368 16.439 81.6288 16.439ZM74.0848 21.177C74.5755 21.177 74.9972 20.9777 75.3498 20.579C75.7178 20.1803 75.9632 19.6053 76.0858 18.854C75.6105 18.532 75.2425 18.1103 74.9818 17.589C74.7365 17.0677 74.6138 16.5157 74.6138 15.933C74.6138 15.6877 74.6368 15.4423 74.6828 15.197H74.5678C73.9545 15.197 73.4408 15.496 73.0268 16.094C72.6282 16.6767 72.4288 17.5047 72.4288 18.578C72.4288 19.4213 72.5898 20.0653 72.9118 20.51C73.2492 20.9547 73.6402 21.177 74.0848 21.177ZM90.6578 18.371C90.8571 18.371 91.0104 18.463 91.1178 18.647C91.2404 18.831 91.3018 19.084 91.3018 19.406C91.3018 20.0193 91.1561 20.4947 90.8648 20.832C90.2054 21.6447 89.4848 22.3117 88.7028 22.833C87.9208 23.3543 87.0238 23.615 86.0118 23.615C82.8838 23.615 81.3198 21.4147 81.3198 17.014C81.3198 16.3393 81.3428 15.657 81.3888 14.967H80.4918C80.0318 14.967 79.7174 14.8827 79.5488 14.714C79.3954 14.5453 79.3188 14.277 79.3188 13.909C79.3188 13.0503 79.6638 12.621 80.3538 12.621H81.6648C81.9254 10.9343 82.3241 9.39333 82.8608 7.998C83.3974 6.60267 84.0414 5.491 84.7928 4.663C85.5594 3.835 86.3798 3.421 87.2538 3.421C87.8978 3.421 88.4038 3.70467 88.7718 4.272C89.1398 4.83933 89.3238 5.55233 89.3238 6.411C89.3238 8.78767 88.3271 10.8577 86.3338 12.621H88.9098C89.1551 12.621 89.3314 12.6747 89.4388 12.782C89.5461 12.8893 89.5998 13.0887 89.5998 13.38C89.5998 14.438 88.7334 14.967 87.0008 14.967H84.1948C84.1641 15.7337 84.1488 16.3317 84.1488 16.761C84.1488 18.3557 84.3328 19.475 84.7008 20.119C85.0841 20.763 85.6821 21.085 86.4948 21.085C87.1541 21.085 87.7368 20.8857 88.2428 20.487C88.7488 20.0883 89.3468 19.4903 90.0368 18.693C90.2208 18.4783 90.4278 18.371 90.6578 18.371ZM86.6328 5.629C86.4028 5.629 86.1421 5.92033 85.8508 6.503C85.5748 7.07033 85.3064 7.86767 85.0458 8.895C84.8004 9.907 84.5934 11.034 84.4248 12.276C85.3294 11.494 86.0041 10.62 86.4488 9.654C86.9088 8.67267 87.1388 7.78333 87.1388 6.986C87.1388 6.08133 86.9701 5.629 86.6328 5.629ZM99.2271 18.371C99.4264 18.371 99.5797 18.463 99.6871 18.647C99.8097 18.831 99.8711 19.084 99.8711 19.406C99.8711 20.0193 99.7254 20.4947 99.4341 20.832C98.8667 21.522 98.0617 22.1583 97.0191 22.741C95.9917 23.3237 94.8877 23.615 93.7071 23.615C92.0971 23.615 90.8474 23.178 89.9581 22.304C89.0687 21.43 88.6241 20.234 88.6241 18.716C88.6241 17.658 88.8464 16.6767 89.2911 15.772C89.7357 14.852 90.3491 14.1237 91.1311 13.587C91.9284 13.0503 92.8254 12.782 93.8221 12.782C94.7114 12.782 95.4244 13.0503 95.9611 13.587C96.4977 14.1083 96.7661 14.8213 96.7661 15.726C96.7661 16.784 96.3827 17.6963 95.6161 18.463C94.8647 19.2143 93.5844 19.8123 91.7751 20.257C92.1584 20.9623 92.8867 21.315 93.9601 21.315C94.6501 21.315 95.4321 21.0773 96.3061 20.602C97.1954 20.1113 97.9621 19.475 98.6061 18.693C98.7901 18.4783 98.9971 18.371 99.2271 18.371ZM93.4311 15.036C92.8637 15.036 92.3807 15.3657 91.9821 16.025C91.5987 16.6843 91.4071 17.4817 91.4071 18.417V18.463C92.3117 18.2483 93.0247 17.9263 93.5461 17.497C94.0674 17.0677 94.3281 16.5693 94.3281 16.002C94.3281 15.7107 94.2437 15.4807 94.0751 15.312C93.9217 15.128 93.7071 15.036 93.4311 15.036ZM101.816 24.121C101.019 24.121 100.406 23.937 99.9764 23.569C99.5624 23.201 99.3554 22.787 99.3554 22.327C99.3554 21.9283 99.501 21.5833 99.7924 21.292C100.084 21.0007 100.513 20.855 101.08 20.855C101.28 20.855 101.51 20.878 101.77 20.924C102.046 20.9547 102.253 20.9777 102.391 20.993C102.376 20.5943 102.284 20.2187 102.115 19.866C101.962 19.5133 101.763 19.176 101.517 18.854C101.272 18.5167 101.042 18.2253 100.827 17.98C100.352 18.8847 99.8767 19.636 99.4014 20.234C98.9414 20.832 98.4354 21.3993 97.8834 21.936C97.6074 22.212 97.316 22.35 97.0094 22.35C96.764 22.35 96.5647 22.2657 96.4114 22.097C96.258 21.913 96.1814 21.6907 96.1814 21.43C96.1814 21.1233 96.2887 20.8397 96.5034 20.579L96.8024 20.211C97.6457 19.1683 98.282 18.3097 98.7114 17.635C98.9874 17.1903 99.2634 16.6613 99.5394 16.048C99.8307 15.4347 100.206 14.599 100.666 13.541C100.958 12.8663 101.563 12.529 102.483 12.529C102.913 12.529 103.212 12.5673 103.38 12.644C103.549 12.7207 103.633 12.8433 103.633 13.012C103.633 13.104 103.603 13.2497 103.541 13.449C103.48 13.6483 103.396 13.8477 103.288 14.047C103.012 14.599 102.874 15.0667 102.874 15.45C102.874 15.68 102.951 15.933 103.104 16.209C103.273 16.485 103.526 16.83 103.863 17.244C104.354 17.888 104.722 18.44 104.967 18.9C105.228 19.3447 105.358 19.8353 105.358 20.372C105.358 21.016 105.205 21.6293 104.898 22.212C104.607 22.7793 104.193 23.2393 103.656 23.592C103.12 23.9447 102.506 24.121 101.816 24.121Z" fill="#0E121B"/>
</g>
<defs>
<clipPath id="clip0_667_2162">
<rect width="106" height="28" fill="white"/>
</clipPath>
<clipPath id="clip1_667_2162">
<rect width="28" height="28" fill="white"/>
</clipPath>
</defs>
</svg>
